<svg width="137" height="147" viewBox="0 0 137 147" fill="none" xmlns="http://www.w3.org/2000/svg">
<g filter="url(#filter0_d_1118_808)">
<path d="M118.906 0C120.747 0 122.514 0.73223 123.816 2.03561C125.118 3.33899 125.85 5.10675 125.85 6.95C125.85 8.79325 125.118 10.561 123.816 11.8644C122.514 13.1678 120.747 13.9 118.906 13.9C113.38 13.9 108.081 16.0967 104.174 20.0068C100.267 23.917 98.0723 29.2202 98.0723 34.75V93.825C98.0723 118.845 77.9334 139 52.9334 139C27.9334 139 7.79454 118.845 7.79454 93.825V76.45C5.95276 76.45 4.18641 75.7178 2.88407 74.4144C1.58173 73.111 0.850098 71.3433 0.850098 69.5C0.850098 67.6567 1.58173 65.889 2.88407 64.5856C4.18641 63.2822 5.95276 62.55 7.79454 62.55H49.4612C51.303 62.55 53.0693 63.2822 54.3717 64.5856C55.674 65.889 56.4057 67.6567 56.4057 69.5C56.4057 71.3433 55.674 73.111 54.3717 74.4144C53.0693 75.7178 51.303 76.45 49.4612 76.45V90.35C49.4612 92.1933 50.1929 93.961 51.4952 95.2644C52.7975 96.5678 54.5639 97.3 56.4057 97.3C58.2474 97.3 60.0138 96.5678 61.3161 95.2644C62.6185 93.961 63.3501 92.1933 63.3501 90.35V62.55C61.5083 62.55 59.742 61.8178 58.4396 60.5144C57.1373 59.211 56.4057 57.4433 56.4057 55.6C56.4057 53.7567 57.1373 51.989 58.4396 50.6856C59.742 49.3822 61.5083 48.65 63.3501 48.65V41.7C61.5083 41.7 59.742 40.9678 58.4396 39.6644C57.1373 38.361 56.4057 36.5933 56.4057 34.75C56.4057 32.9067 57.1373 31.139 58.4396 29.8356C59.742 28.5322 61.5083 27.8 63.3501 27.8V24.325C63.3501 17.8736 65.9109 11.6864 70.469 7.12463C75.0272 2.5628 81.2094 0 87.6557 0H118.906Z" fill="#CFC702"/>
</g>
<defs>
<filter id="filter0_d_1118_808" x="0.850098" y="0" width="136" height="147" filterUnits="userSpaceOnUse" color-interpolation-filters="sRGB">
<feFlood flood-opacity="0" result="BackgroundImageFix"/>
<feColorMatrix in="SourceAlpha" type="matrix" values="0 0 0 0 0 0 0 0 0 0 0 0 0 0 0 0 0 0 127 0" result="hardAlpha"/>
<feOffset dx="7" dy="4"/>
<feGaussianBlur stdDeviation="2"/>
<feComposite in2="hardAlpha" operator="out"/>
<feColorMatrix type="matrix" values="0 0 0 0 0.713726 0 0 0 0 0.682353 0 0 0 0 0 0 0 0 0.5 0"/>
<feBlend mode="normal" in2="BackgroundImageFix" result="effect1_dropShadow_1118_808"/>
<feBlend mode="normal" in="SourceGraphic" in2="effect1_dropShadow_1118_808" result="shape"/>
</filter>
</defs>
</svg>
