<svg width="256" height="256" viewBox="0 0 256 256" fill="none" xmlns="http://www.w3.org/2000/svg">
<path fill-rule="evenodd" clip-rule="evenodd" d="M79.6265 11.3707C92.1385 10.7947 96.1278 10.6667 128 10.6667C159.872 10.6667 163.861 10.8053 176.363 11.3707C188.864 11.936 197.397 13.9307 204.864 16.8213C212.683 19.776 219.776 24.3947 225.643 30.368C231.616 36.224 236.224 43.3067 239.168 51.136C242.069 58.6027 244.053 67.136 244.629 79.616C245.205 92.1493 245.333 96.1387 245.333 128C245.333 159.872 245.195 163.861 244.629 176.373C244.064 188.853 242.069 197.387 239.168 204.853C236.224 212.684 231.608 219.778 225.643 225.643C219.776 231.616 212.683 236.224 204.864 239.168C197.397 242.069 188.864 244.053 176.384 244.629C163.861 245.205 159.872 245.333 128 245.333C96.1278 245.333 92.1385 245.195 79.6265 244.629C67.1465 244.064 58.6132 242.069 51.1465 239.168C43.3163 236.224 36.2219 231.608 30.3572 225.643C24.3879 219.783 19.7685 212.692 16.8212 204.864C13.9305 197.397 11.9465 188.864 11.3705 176.384C10.7945 163.851 10.6665 159.861 10.6665 128C10.6665 96.128 10.8052 92.1387 11.3705 79.6373C11.9358 67.136 13.9305 58.6027 16.8212 51.136C19.7729 43.3075 24.3958 36.2167 30.3678 30.3573C36.2243 24.3893 43.3115 19.7701 51.1358 16.8213C58.6025 13.9307 67.1358 11.9467 79.6158 11.3707H79.6265ZM175.413 32.4907C163.04 31.9253 159.328 31.808 128 31.808C96.6718 31.808 92.9598 31.9253 80.5865 32.4907C69.1412 33.0133 62.9332 34.9227 58.7945 36.5333C53.3225 38.6667 49.4078 41.1947 45.3012 45.3013C41.4083 49.0885 38.4124 53.699 36.5332 58.7947C34.9225 62.9333 33.0132 69.1413 32.4905 80.5867C31.9252 92.96 31.8078 96.672 31.8078 128C31.8078 159.328 31.9252 163.04 32.4905 175.413C33.0132 186.859 34.9225 193.067 36.5332 197.205C38.4105 202.293 41.4078 206.912 45.3012 210.699C49.0878 214.592 53.7065 217.589 58.7945 219.467C62.9332 221.077 69.1412 222.987 80.5865 223.509C92.9598 224.075 96.6612 224.192 128 224.192C159.339 224.192 163.04 224.075 175.413 223.509C186.859 222.987 193.067 221.077 197.205 219.467C202.677 217.333 206.592 214.805 210.699 210.699C214.592 206.912 217.589 202.293 219.467 197.205C221.077 193.067 222.987 186.859 223.509 175.413C224.075 163.04 224.192 159.328 224.192 128C224.192 96.672 224.075 92.96 223.509 80.5867C222.987 69.1413 221.077 62.9333 219.467 58.7947C217.333 53.3227 214.805 49.408 210.699 45.3013C206.911 41.4088 202.301 38.4129 197.205 36.5333C193.067 34.9227 186.859 33.0133 175.413 32.4907V32.4907ZM113.013 164.171C121.383 167.655 130.703 168.125 139.38 165.501C148.058 162.877 155.556 157.322 160.593 149.784C165.63 142.246 167.894 133.193 166.998 124.172C166.102 115.15 162.101 106.72 155.68 100.32C151.586 96.2291 146.637 93.0967 141.187 91.1482C135.738 89.1998 129.924 88.4838 124.165 89.0519C118.406 89.6199 112.844 91.4579 107.88 94.4334C102.917 97.4089 98.6744 101.448 95.4591 106.26C92.2437 111.072 90.1352 116.536 89.2853 122.261C88.4355 127.985 88.8655 133.827 90.5443 139.366C92.2231 144.904 95.109 150.001 98.9942 154.29C102.879 158.58 107.667 161.954 113.013 164.171ZM85.3545 85.3547C90.9548 79.7544 97.6033 75.312 104.92 72.2812C112.237 69.2503 120.08 67.6904 128 67.6904C135.92 67.6904 143.762 69.2503 151.079 72.2812C158.396 75.312 165.045 79.7544 170.645 85.3547C176.245 90.9549 180.688 97.6034 183.719 104.921C186.749 112.238 188.309 120.08 188.309 128C188.309 135.92 186.749 143.762 183.719 151.079C180.688 158.397 176.245 165.045 170.645 170.645C159.335 181.956 143.995 188.31 128 188.31C112.005 188.31 96.6648 181.956 85.3545 170.645C74.0443 159.335 67.6902 143.995 67.6902 128C67.6902 112.005 74.0443 96.6649 85.3545 85.3547V85.3547ZM201.685 76.672C203.073 75.3629 204.184 73.7886 204.952 72.0424C205.721 70.2962 206.131 68.4135 206.159 66.5059C206.187 64.5983 205.832 62.7045 205.114 60.9366C204.397 59.1688 203.332 57.5628 201.983 56.2137C200.634 54.8647 199.028 53.8001 197.261 53.0828C195.493 52.3656 193.599 52.0104 191.691 52.0382C189.784 52.066 187.901 52.4763 186.155 53.2448C184.409 54.0132 182.834 55.1242 181.525 56.512C178.979 59.211 177.585 62.796 177.639 66.5059C177.693 70.2159 179.191 73.7587 181.815 76.3823C184.438 79.0059 187.981 80.5038 191.691 80.5578C195.401 80.6119 198.986 79.218 201.685 76.672V76.672Z" fill="#F3F4F6"/>
</svg>
