<svg width="256" height="256" viewBox="0 0 256 256" fill="none" xmlns="http://www.w3.org/2000/svg">
<path fill-rule="evenodd" clip-rule="evenodd" d="M10.6665 30.272C10.6665 25.0723 12.7321 20.0856 16.4088 16.4089C20.0855 12.7322 25.0722 10.6667 30.2718 10.6667H225.707C228.283 10.6624 230.836 11.1665 233.217 12.15C235.599 13.1335 237.763 14.5772 239.586 16.3982C241.41 18.2193 242.856 20.3821 243.842 22.7628C244.828 25.1434 245.335 27.6952 245.333 30.272V225.707C245.336 228.284 244.831 230.837 243.846 233.218C242.861 235.6 241.417 237.764 239.595 239.587C237.773 241.41 235.609 242.856 233.228 243.842C230.847 244.828 228.294 245.335 225.717 245.333H30.2718C27.6963 245.333 25.1461 244.826 22.7667 243.84C20.3874 242.854 18.2257 241.409 16.405 239.587C14.5843 237.766 13.1404 235.603 12.1558 233.223C11.1712 230.843 10.6651 228.293 10.6665 225.717V30.272ZM103.552 100.139H135.328V116.096C139.915 106.923 151.648 98.6667 169.28 98.6667C203.083 98.6667 211.093 116.939 211.093 150.464V212.565H176.885V158.101C176.885 139.008 172.299 128.235 160.651 128.235C144.491 128.235 137.771 139.851 137.771 158.101V212.565H103.552V100.139ZM44.8852 211.104H79.1038V98.6667H44.8852V211.093V211.104ZM83.9998 61.9947C84.0644 64.9245 83.543 67.8377 82.4664 70.5633C81.3898 73.289 79.7796 75.7721 77.7303 77.867C75.681 79.9619 73.234 81.6264 70.5327 82.7627C67.8314 83.8991 64.9304 84.4844 61.9998 84.4844C59.0693 84.4844 56.1683 83.8991 53.467 82.7627C50.7657 81.6264 48.3186 79.9619 46.2694 77.867C44.2201 75.7721 42.6099 73.289 41.5333 70.5633C40.4567 67.8377 39.9353 64.9245 39.9998 61.9947C40.1265 56.2438 42.4999 50.7711 46.612 46.7486C50.724 42.7262 56.2476 40.4738 61.9998 40.4738C67.7521 40.4738 73.2757 42.7262 77.3877 46.7486C81.4997 50.7711 83.8732 56.2438 83.9998 61.9947V61.9947Z" fill="#F3F4F6"/>
</svg>
