<svg width="568" height="147" viewBox="0 0 568 147" fill="none" xmlns="http://www.w3.org/2000/svg">
<path d="M28.6 137.32C24.0533 137.32 19.8367 137.247 15.95 137.1C12.0633 136.953 6.74667 136.623 0 136.11V60.32H37.84C43.1933 60.32 47.9967 61.09 52.25 62.63C56.5767 64.0967 59.95 66.2233 62.37 69.01C64.79 71.7967 66 75.0233 66 78.69C66 83.2367 65.01 86.83 63.03 89.47C61.05 92.0367 58.0433 93.8333 54.01 94.86C64.2767 96.4733 69.41 102.523 69.41 113.01C69.41 120.27 66.0733 126.137 59.4 130.61C52.8 135.083 42.5333 137.32 28.6 137.32ZM33.22 90.24C36.08 90.24 38.4267 89.5433 40.26 88.15C42.1667 86.7567 43.12 84.96 43.12 82.76C43.12 77.5533 39.8933 74.95 33.44 74.95H24.53V90.24H33.22ZM32.78 120.05C36.8133 120.05 39.8933 119.317 42.02 117.85C44.22 116.31 45.32 114.183 45.32 111.47C45.32 108.537 44.33 106.3 42.35 104.76C40.37 103.147 37.5467 102.34 33.88 102.34H24.42V119.72C27.72 119.94 30.5067 120.05 32.78 120.05Z" fill="#2A00A0"/>
<path d="M96.3428 136.88C90.1095 136.88 85.2695 134.937 81.8228 131.05C78.4495 127.09 76.7628 121.7 76.7628 114.88V63.51L99.9728 60.1V113.23C99.9728 115.283 100.449 116.787 101.403 117.74C102.429 118.62 104.189 119.06 106.683 119.06C108.516 119.06 110.313 118.62 112.073 117.74L112.843 133.14C107.929 135.633 102.429 136.88 96.3428 136.88Z" fill="#2A00A0"/>
<path d="M147.815 136.88C142.022 136.88 136.852 135.853 132.305 133.8C127.832 131.747 124.348 128.85 121.855 125.11C119.362 121.37 118.115 117.117 118.115 112.35V80.89H140.775V112.02C140.775 114.44 141.435 116.347 142.755 117.74C144.148 119.06 145.872 119.72 147.925 119.72C149.905 119.72 151.518 119.06 152.765 117.74C154.085 116.347 154.745 114.44 154.745 112.02V80.89H176.965V112.35C176.965 117.19 175.718 121.48 173.225 125.22C170.805 128.887 167.395 131.747 162.995 133.8C158.595 135.853 153.535 136.88 147.815 136.88Z" fill="#2A00A0"/>
<path d="M216.117 136.88C210.031 136.88 204.604 135.67 199.837 133.25C195.144 130.757 191.477 127.383 188.837 123.13C186.197 118.803 184.877 113.927 184.877 108.5C184.877 102.927 186.234 97.9767 188.947 93.65C191.661 89.3233 195.327 85.9867 199.947 83.64C204.567 81.2933 209.701 80.12 215.347 80.12C220.774 80.12 225.394 81.33 229.207 83.75C233.094 86.0967 235.991 89.3233 237.897 93.43C239.804 97.4633 240.757 102.01 240.757 107.07C240.757 108.39 240.684 109.343 240.537 109.93L207.537 114.22C208.417 116.787 209.847 118.657 211.827 119.83C213.807 120.93 216.411 121.48 219.637 121.48C224.624 121.48 230.014 120.197 235.807 117.63L238.557 132.37C231.737 135.377 224.257 136.88 216.117 136.88ZM223.707 100.36C222.534 95.74 219.747 93.43 215.347 93.43C212.707 93.43 210.617 94.42 209.077 96.4C207.537 98.38 206.731 100.947 206.657 104.1L223.707 100.36Z" fill="#2A00A0"/>
<path d="M416.683 136.88C411.917 136.88 407.443 135.633 403.263 133.14C399.157 130.573 395.857 127.127 393.363 122.8C390.87 118.4 389.623 113.523 389.623 108.17C389.623 102.89 390.87 98.1233 393.363 93.87C395.857 89.5433 399.193 86.17 403.373 83.75C407.553 81.33 411.99 80.12 416.683 80.12C420.497 80.12 424.017 81.1833 427.243 83.31C430.543 85.4367 433.037 88.6267 434.723 92.88V80.12H457.823V136H434.723V125.77C431.057 133.177 425.043 136.88 416.683 136.88ZM423.833 119.5C426.767 119.5 429.26 118.473 431.313 116.42C433.44 114.293 434.577 111.8 434.723 108.94V108.06C434.577 105.127 433.403 102.633 431.203 100.58C429.077 98.5267 426.62 97.5 423.833 97.5C420.753 97.5 418.113 98.6 415.913 100.8C413.787 102.927 412.723 105.493 412.723 108.5C412.723 111.58 413.823 114.183 416.023 116.31C418.223 118.437 420.827 119.5 423.833 119.5Z" fill="#2A00A0"/>
<path d="M466.875 124.23L486.235 94.97H467.645V80.89H513.405V92.77L495.035 121.92H513.845V136H466.875V124.23Z" fill="#2A00A0"/>
<path d="M520.801 124.23L540.161 94.97H521.571V80.89H567.331V92.77L548.961 121.92H567.771V136H520.801V124.23Z" fill="#2A00A0"/>
<g filter="url(#filter0_d_1118_806)">
<path d="M400.906 0C402.747 0 404.514 0.73223 405.816 2.03561C407.118 3.33899 407.85 5.10675 407.85 6.95C407.85 8.79325 407.118 10.561 405.816 11.8644C404.514 13.1678 402.747 13.9 400.906 13.9C395.38 13.9 390.081 16.0967 386.174 20.0068C382.267 23.917 380.072 29.2202 380.072 34.75V93.825C380.072 118.845 359.933 139 334.933 139C309.933 139 289.795 118.845 289.795 93.825V76.45C287.953 76.45 286.186 75.7178 284.884 74.4144C283.582 73.111 282.85 71.3433 282.85 69.5C282.85 67.6567 283.582 65.889 284.884 64.5856C286.186 63.2822 287.953 62.55 289.795 62.55H331.461C333.303 62.55 335.069 63.2822 336.372 64.5856C337.674 65.889 338.406 67.6567 338.406 69.5C338.406 71.3433 337.674 73.111 336.372 74.4144C335.069 75.7178 333.303 76.45 331.461 76.45V90.35C331.461 92.1933 332.193 93.961 333.495 95.2644C334.798 96.5678 336.564 97.3 338.406 97.3C340.247 97.3 342.014 96.5678 343.316 95.2644C344.618 93.961 345.35 92.1933 345.35 90.35V62.55C343.508 62.55 341.742 61.8178 340.44 60.5144C339.137 59.211 338.406 57.4433 338.406 55.6C338.406 53.7567 339.137 51.989 340.44 50.6856C341.742 49.3822 343.508 48.65 345.35 48.65V41.7C343.508 41.7 341.742 40.9678 340.44 39.6644C339.137 38.361 338.406 36.5933 338.406 34.75C338.406 32.9067 339.137 31.139 340.44 29.8356C341.742 28.5322 343.508 27.8 345.35 27.8V24.325C345.35 17.8736 347.911 11.6864 352.469 7.12463C357.027 2.5628 363.209 0 369.656 0H400.906Z" fill="#CFC702"/>
</g>
<defs>
<filter id="filter0_d_1118_806" x="282.85" y="0" width="136" height="147" filterUnits="userSpaceOnUse" color-interpolation-filters="sRGB">
<feFlood flood-opacity="0" result="BackgroundImageFix"/>
<feColorMatrix in="SourceAlpha" type="matrix" values="0 0 0 0 0 0 0 0 0 0 0 0 0 0 0 0 0 0 127 0" result="hardAlpha"/>
<feOffset dx="7" dy="4"/>
<feGaussianBlur stdDeviation="2"/>
<feComposite in2="hardAlpha" operator="out"/>
<feColorMatrix type="matrix" values="0 0 0 0 0.713726 0 0 0 0 0.682353 0 0 0 0 0 0 0 0 0.5 0"/>
<feBlend mode="normal" in2="BackgroundImageFix" result="effect1_dropShadow_1118_806"/>
<feBlend mode="normal" in="SourceGraphic" in2="effect1_dropShadow_1118_806" result="shape"/>
</filter>
</defs>
</svg>
