<svg width="256" height="256" viewBox="0 0 256 256" fill="none" xmlns="http://www.w3.org/2000/svg">
<path d="M252.192 52.6614C243.285 56.608 233.717 59.2747 223.659 60.4801C234.037 54.2698 241.802 44.4957 245.504 32.9814C235.753 38.7733 225.081 42.8501 213.952 45.0347C206.468 37.0439 196.555 31.7475 185.753 29.9678C174.95 28.188 163.862 30.0245 154.211 35.1921C144.559 40.3597 136.883 48.5692 132.375 58.5462C127.867 68.5232 126.779 79.7094 129.28 90.368C109.522 89.376 90.1933 84.2406 72.5485 75.295C54.9037 66.3495 39.3369 53.7938 26.8586 38.4427C22.592 45.8027 20.1386 54.3361 20.1386 63.4241C20.1339 71.6053 22.1486 79.6613 26.004 86.8772C29.8594 94.0931 35.4364 100.246 42.24 104.789C34.3496 104.538 26.6333 102.406 19.7333 98.5707V99.2107C19.7325 110.685 23.7016 121.807 30.9672 130.688C38.2329 139.569 48.3474 145.663 59.5946 147.936C52.275 149.917 44.6009 150.209 37.152 148.789C40.3253 158.663 46.5066 167.296 54.8305 173.482C63.1545 179.668 73.2044 183.095 83.5733 183.285C65.9715 197.103 44.2334 204.598 21.856 204.565C17.892 204.566 13.9314 204.335 9.99463 203.872C32.709 218.477 59.1503 226.227 86.1546 226.197C177.568 226.197 227.541 150.485 227.541 84.8214C227.541 82.688 227.488 80.5334 227.392 78.4C237.112 71.3704 245.503 62.6656 252.171 52.6934L252.192 52.6614V52.6614Z" fill="#F3F4F6"/>
</svg>
